<svg xmlns="http://www.w3.org/2000/svg" viewBox="0 0 24 24" fill="#1e88e5" width="24px" height="24px">
  <path d="M0 0h24v24H0V0z" fill="none"/>
  <path d="M20 9V7c0-1.1-.9-2-2-2h-3c0-1.66-1.34-3-3-3S9 3.34 9 5H6c-1.1 0-2 .9-2 2v2c-1.66 0-3 1.34-3 3s1.34 3 3 3v4c0 1.1.9 2 2 2h12c1.1 0 2-.9 2-2v-4c1.66 0 3-1.34 3-3s-1.34-3-3-3zm-2 10H6V7h12v12zm-9-6c-.83 0-1.5-.67-1.5-1.5S8.17 10 9 10s1.5.67 1.5 1.5S9.83 13 9 13zm6 0c-.83 0-1.5-.67-1.5-1.5s.67-1.5 1.5-1.5 1.5.67 1.5 1.5-.67 1.5-1.5 1.5z"/>
  <path d="M12 16c-1.48 0-2.79-.81-3.5-2h7c-.71 1.19-2.02 2-3.5 2z"/>
</svg> 